<?xml version="1.0" standalone="no"?>
<!DOCTYPE svg PUBLIC "-//W3C//DTD SVG 20010904//EN"
 "http://www.w3.org/TR/2001/REC-SVG-20010904/DTD/svg10.dtd">
<svg version="1.0" xmlns="http://www.w3.org/2000/svg"
 width="2000.000000pt" height="2000.000000pt" viewBox="0 0 2000.000000 2000.000000"
 preserveAspectRatio="xMidYMid meet">
<metadata>
Created by potrace 1.11, written by Peter Selinger 2001-2013
</metadata>
<g transform="translate(0.000000,2000.000000) scale(0.100000,-0.100000)"
fill="#000000" stroke="none">
<path d="M8074 18337 c-82 -104 -218 -373 -349 -695 l-70 -173 -87 -29 c-145
-49 -337 -151 -689 -368 -399 -245 -526 -304 -659 -306 -64 -1 -81 3 -121 26
-70 41 -126 110 -174 213 -24 52 -53 98 -64 104 -78 42 -175 -30 -286 -214
-69 -115 -94 -260 -60 -342 21 -51 20 -53 -29 -53 -56 0 -212 -40 -311 -79
-213 -86 -330 -177 -712 -560 -182 -182 -334 -325 -372 -351 -84 -56 -143 -76
-321 -105 -83 -14 -185 -36 -227 -50 -160 -51 -292 -156 -354 -281 -31 -62
-34 -77 -34 -154 0 -94 21 -152 76 -211 16 -17 29 -34 29 -38 0 -4 -21 -27
-46 -51 -62 -61 -132 -160 -155 -220 -24 -64 -24 -152 0 -205 10 -22 36 -57
57 -79 44 -44 145 -96 186 -96 43 0 41 -16 -5 -36 -97 -44 -238 -215 -305
-369 -167 -388 -109 -715 223 -1239 99 -157 135 -229 135 -269 0 -47 -71 -107
-305 -257 -385 -248 -557 -381 -786 -609 -382 -381 -575 -732 -529 -957 37
-181 186 -324 422 -409 106 -38 227 -65 288 -65 l42 0 -7 -64 c-13 -123 30
-247 120 -344 62 -67 145 -113 216 -120 27 -2 49 -6 49 -8 0 -1 -18 -35 -39
-76 -162 -300 -162 -876 -2 -1215 112 -235 279 -401 487 -484 181 -73 356 -99
654 -99 105 0 190 -2 190 -4 0 -2 -14 -37 -31 -77 -170 -397 -156 -777 34
-962 81 -79 238 -147 341 -147 41 0 38 10 60 -160 35 -256 32 -324 -14 -365
-31 -28 -26 -78 10 -109 38 -31 95 -40 214 -33 157 9 289 72 427 205 66 63 80
71 85 56 16 -53 89 -185 124 -225 139 -163 398 -215 588 -118 31 16 60 29 63
29 3 0 11 -17 17 -38 21 -66 93 -146 166 -182 120 -59 239 -40 392 62 129 86
346 318 458 490 17 26 34 48 37 48 3 0 20 -33 37 -72 88 -200 237 -322 440
-363 71 -15 91 -15 129 -5 l45 13 59 -59 c58 -59 59 -60 48 -93 -16 -44 -6
-138 19 -187 11 -22 41 -59 67 -83 l47 -44 -90 -241 c-115 -307 -252 -701
-252 -726 0 -11 -15 -36 -32 -56 -26 -30 -98 -69 -348 -192 -671 -328 -1195
-578 -1602 -763 -120 -54 -289 -134 -375 -178 -87 -43 -198 -93 -248 -111 -49
-18 -153 -57 -230 -86 -77 -29 -198 -69 -270 -89 -71 -20 -193 -56 -270 -80
-77 -24 -264 -80 -415 -125 -424 -125 -649 -201 -845 -285 -286 -122 -401
-180 -524 -262 -140 -93 -239 -186 -333 -312 -39 -52 -107 -133 -150 -179 -87
-94 -171 -202 -217 -280 -16 -28 -90 -149 -164 -269 -129 -209 -304 -518 -381
-671 l-36 -72 79 0 79 0 62 117 c81 154 251 452 355 623 128 211 200 331 228
380 14 25 55 81 92 125 97 116 424 465 437 465 19 0 193 -158 245 -222 79 -99
124 -174 243 -409 61 -120 115 -221 120 -224 15 -9 12 73 -5 156 -66 312 -237
588 -470 755 l-29 22 140 70 c147 74 314 128 959 312 138 40 345 101 460 137
116 35 269 83 340 105 72 22 155 52 185 68 30 16 96 41 145 55 346 102 1183
477 2358 1054 203 100 370 181 373 181 2 0 4 -99 4 -220 0 -592 89 -1379 240
-2131 74 -367 111 -485 156 -494 13 -3 35 -7 48 -10 20 -4 31 5 70 63 29 43
56 100 74 157 29 91 92 249 97 243 2 -2 11 -57 20 -123 9 -66 23 -150 31 -188
13 -56 19 -68 39 -73 32 -8 41 -1 71 59 129 257 502 849 926 1471 4 5 37 -19
75 -55 80 -75 242 -207 331 -268 77 -54 80 -74 17 -114 -122 -78 -173 -197
-239 -565 -24 -134 -51 -198 -108 -258 -56 -59 -61 -91 -25 -145 12 -19 29
-49 36 -67 19 -45 61 -78 118 -91 l49 -12 -4 -165 c-6 -238 15 -321 100 -400
18 -17 40 -42 49 -55 9 -13 29 -31 45 -39 16 -8 32 -19 36 -25 4 -5 8 -67 8
-137 l0 -128 45 0 45 0 0 135 0 135 27 11 c21 8 41 6 83 -7 68 -22 180 -22
240 0 25 8 70 16 100 16 32 0 64 6 76 15 12 8 24 11 28 8 3 -3 6 -75 6 -160
l0 -153 49 0 48 0 -5 235 c-4 209 -3 240 13 282 16 41 17 68 11 248 l-7 202
38 6 c21 4 54 20 74 37 37 30 109 156 109 189 0 26 -34 66 -85 101 -63 44 -89
105 -125 297 -16 89 -35 174 -42 190 -7 17 -13 108 -16 229 l-4 202 58 43 c33
23 80 59 105 80 l46 38 13 -27 c154 -330 413 -993 535 -1372 l28 -85 37 3 37
4 76 271 c42 150 81 292 88 317 l12 45 14 -40 c8 -22 30 -94 49 -159 33 -115
84 -226 130 -283 20 -26 23 -26 62 -15 75 23 151 136 327 491 286 575 529
1220 633 1681 31 136 62 324 62 375 0 23 2 25 15 15 8 -6 19 -9 24 -6 5 4 79
-36 164 -88 544 -333 1214 -723 1452 -847 298 -155 562 -241 1311 -428 552
-137 971 -264 1245 -376 133 -54 185 -80 317 -158 l103 -61 -50 -13 c-171 -43
-317 -244 -456 -628 -52 -143 -118 -388 -113 -420 2 -12 42 64 97 185 234 511
286 605 381 694 65 61 103 76 189 76 69 0 71 -1 98 -36 15 -19 55 -70 89 -112
97 -123 217 -293 310 -440 47 -75 103 -162 124 -192 45 -66 206 -362 319 -588
l81 -162 80 0 80 0 -95 190 c-120 239 -315 592 -392 707 -298 447 -483 673
-657 805 -98 74 -307 177 -575 283 -409 162 -643 239 -1056 346 -666 174 -808
214 -1035 296 -231 82 -436 192 -1160 621 -168 99 -436 259 -596 356 l-291
175 -52 148 c-55 153 -314 809 -383 968 l-38 89 28 29 29 29 32 -51 c58 -89
156 -161 221 -161 58 0 86 24 136 119 42 81 53 94 107 127 57 35 217 187 217
205 0 24 18 5 28 -29 18 -61 87 -148 156 -197 388 -276 1125 -191 1558 181 57
48 133 133 140 156 3 7 28 -7 62 -35 65 -53 89 -62 150 -55 70 8 135 48 221
134 l81 81 28 -23 c32 -28 100 -33 144 -10 79 41 170 183 194 302 7 32 13 61
14 63 2 2 17 -7 34 -19 60 -42 138 -63 241 -64 87 -1 101 2 154 29 113 58 127
139 79 439 -21 135 -25 185 -22 306 8 274 50 327 518 654 650 455 952 782
1079 1166 70 215 68 487 -5 692 -69 193 -210 387 -358 496 l-51 37 62 6 c321
31 451 449 258 829 -45 89 -97 159 -200 270 -120 130 -150 188 -142 269 4 31
45 198 92 371 101 370 118 440 139 580 28 187 39 332 32 450 -13 260 -62 422
-180 599 -130 195 -268 331 -558 551 -160 122 -273 224 -296 267 -11 20 -8 24
49 54 72 39 132 103 154 167 48 138 15 347 -62 397 -15 10 -44 18 -65 19 -21
0 -38 2 -38 3 0 1 18 26 40 55 124 163 127 298 7 359 -37 19 -51 21 -151 15
-400 -23 -499 -19 -602 28 -100 46 -135 128 -184 437 -44 276 -67 377 -116
522 -76 222 -147 342 -278 472 -175 174 -412 293 -736 369 -186 44 -304 58
-530 62 l-215 4 -5 43 c-10 84 -75 153 -176 188 -111 39 -270 42 -639 9 -161
-14 -299 -13 -340 4 -25 11 -51 41 -105 121 -39 58 -98 133 -131 166 -72 72
-202 159 -305 204 -41 17 -79 36 -84 41 -5 5 -54 97 -108 204 -104 206 -187
346 -308 521 -79 115 -110 138 -157 120 -61 -23 -60 -62 1 -429 27 -156 45
-285 41 -288 -4 -2 -61 1 -125 7 -152 15 -594 6 -774 -15 -463 -55 -948 -172
-1251 -302 -45 -19 -81 -34 -82 -34 -1 0 -2 25 -2 56 0 50 -3 58 -33 85 -65
58 -138 37 -342 -100 l-104 -70 -23 62 c-36 101 -120 162 -197 143 -48 -12
-85 -65 -116 -166 -16 -52 -32 -110 -35 -128 l-7 -33 -58 64 c-97 106 -234
181 -423 232 -37 10 -70 22 -72 26 -3 4 1 96 9 206 34 467 39 589 26 627 -23
72 -91 89 -136 33z m6 -267 c0 -5 -5 -10 -11 -10 -5 0 -7 5 -4 10 3 6 8 10 11
10 2 0 4 -4 4 -10z m860 -734 c0 -14 -27 -42 -34 -35 -2 2 0 14 5 27 9 24 29
30 29 8z m3384 -1253 c27 -54 66 -195 66 -241 0 -60 -10 -122 -20 -122 -12 0
-49 94 -65 167 -9 37 -23 96 -32 130 -8 34 -13 69 -10 77 10 26 45 19 61 -11z
m-4707 -99 c3 -9 -1 -40 -9 -70 -9 -30 -13 -55 -9 -55 3 -1 40 -3 81 -4 41 -2
75 -4 75 -5 0 -1 54 -4 119 -6 66 -3 121 -6 123 -8 4 -3 14 -218 38 -811 27
-644 108 -1439 181 -1769 13 -60 24 -121 24 -135 0 -26 33 -84 73 -128 24 -27
47 -15 47 26 0 39 113 152 191 191 94 48 178 62 369 60 149 -2 169 0 207 19
30 15 48 18 65 12 29 -10 63 -1 116 33 23 14 45 26 49 26 5 0 19 -16 33 -35
14 -19 40 -42 58 -52 33 -18 34 -18 52 5 23 28 34 28 54 -3 12 -18 25 -25 49
-25 18 0 38 5 43 10 8 8 19 8 38 0 15 -5 62 -10 104 -10 42 -1 95 -7 117 -15
59 -22 73 -19 108 21 47 53 103 74 200 74 71 0 84 -3 95 -20 17 -28 49 -25
175 15 84 26 115 32 134 24 13 -5 44 -9 68 -9 103 0 424 -69 591 -127 77 -27
84 -32 160 -115 136 -149 187 -256 188 -393 1 -71 -2 -86 -29 -133 -27 -50
-113 -140 -155 -162 -16 -9 -22 -2 -43 44 -37 81 -145 222 -236 308 -77 73
-81 79 -105 159 -14 46 -36 124 -48 174 -25 97 -44 116 -72 73 -17 -27 -46
-250 -46 -357 0 -69 2 -76 47 -149 25 -42 84 -153 129 -247 l83 -170 -28 -25
c-41 -37 -62 -74 -64 -115 l-3 -37 -84 -25 c-47 -13 -89 -28 -94 -34 -6 -5
-17 -9 -26 -9 -18 0 -51 -32 -70 -70 -7 -13 -35 -94 -62 -180 -40 -127 -49
-169 -50 -231 0 -104 19 -138 91 -158 31 -9 44 -5 130 38 98 49 223 121 319
181 29 18 55 31 58 28 3 -3 7 -67 10 -141 l5 -136 -83 -42 c-348 -182 -617
-520 -699 -879 -11 -52 -23 -105 -25 -116 -4 -21 -7 -20 -91 22 -136 68 -250
78 -382 32 -30 -10 -69 -27 -87 -37 l-33 -20 -12 57 c-16 81 -65 214 -111 307
-140 278 -415 547 -689 673 -109 51 -280 106 -394 127 -49 10 -128 26 -175 37
-293 70 -633 -1 -918 -192 -109 -72 -257 -211 -343 -320 l-64 -82 -2 33 c-3
38 -28 569 -40 834 -5 94 -7 179 -6 190 1 11 -5 97 -12 190 -37 446 -43 751
-25 1295 16 473 59 977 120 1395 11 72 31 218 45 325 32 238 114 693 126 701
6 3 34 4 64 2 l54 -3 21 47 c12 27 28 58 36 71 17 26 52 29 61 6z m4778 -334
c0 -2 175 -9 335 -13 63 -2 122 -7 131 -13 25 -15 188 -654 284 -1119 126
-607 179 -946 241 -1550 29 -280 36 -397 41 -662 l6 -321 -51 -59 c-170 -197
-360 -597 -379 -799 -3 -35 -7 -64 -9 -64 -2 0 -32 27 -66 61 -170 163 -397
290 -628 350 l-45 12 50 17 c122 42 215 113 231 175 13 54 -1 198 -25 244 -40
77 -197 224 -294 276 -20 11 -37 22 -37 25 0 3 19 16 41 30 66 41 184 161 212
215 58 116 72 186 72 365 0 149 -3 175 -28 264 -34 123 -101 283 -169 401
l-51 90 -8 625 c-7 609 -20 987 -39 1200 -6 58 -10 139 -10 181 l0 76 98 -3
c53 -1 97 -3 97 -4z m-2320 -1220 c121 -93 163 -165 133 -226 -45 -93 -180
-87 -266 11 -46 52 -72 108 -72 157 0 112 99 140 205 58z m310 -53 c40 -39 55
-60 55 -80 0 -56 -52 -48 -127 18 -54 47 -66 78 -41 103 25 25 58 12 113 -41z
m-3770 -340 c24 -24 36 -49 46 -92 21 -98 16 -134 -20 -167 -68 -60 -170 -17
-192 81 -17 75 9 164 55 192 45 27 73 24 111 -14z m-2717 -252 c40 -46 28 -97
-39 -170 -30 -33 -49 -122 -49 -232 0 -73 -28 -136 -69 -157 -69 -36 -153 -8
-195 64 -17 29 -21 52 -21 130 0 191 73 313 224 377 68 29 116 25 149 -12z
m9989 -40 c12 -8 29 -38 38 -65 20 -61 58 -108 102 -126 47 -20 165 -17 262 6
158 38 234 51 257 46 13 -4 36 -25 51 -47 15 -22 45 -50 67 -61 23 -11 49 -27
59 -36 35 -31 12 -102 -33 -102 -11 0 -35 14 -53 30 -30 26 -43 30 -90 30 -49
0 -60 -4 -98 -36 -130 -108 -345 -145 -500 -85 -154 59 -237 211 -195 355 27
93 80 128 133 91z m-9655 -102 c30 -27 30 -51 2 -136 -39 -118 -75 -151 -135
-126 -30 12 -59 54 -59 84 0 9 9 49 21 88 27 93 56 122 113 113 22 -4 48 -14
58 -23z m10711 -63 c73 -64 111 -144 82 -174 -32 -31 -64 -20 -132 47 -53 54
-63 69 -63 98 0 19 5 40 12 47 21 21 66 13 101 -18z m-2773 -310 c21 -41 26
-95 11 -105 -15 -8 -47 39 -61 90 -11 39 -11 48 0 55 19 12 27 5 50 -40z
m-130 18 c29 -32 57 -125 43 -146 -26 -43 -64 -23 -99 53 -28 59 -29 78 -8 99
21 22 39 20 64 -6z m-200 -1493 c0 -8 -17 -41 -37 -72 -21 -32 -36 -69 -35
-82 2 -25 -42 -111 -58 -111 -4 0 -15 -19 -22 -42 -13 -37 -19 -43 -46 -46
-31 -3 -32 -2 -33 40 0 24 -6 90 -13 148 -7 58 -10 109 -6 113 7 8 209 64 238
66 6 1 12 -6 12 -14z m-4971 -1462 c42 -52 42 -54 34 -104 l-8 -52 -57 80
c-32 44 -58 83 -58 87 0 15 33 56 40 49 3 -4 25 -32 49 -60z m3395 -122 c30
-10 81 -37 114 -60 34 -22 65 -41 71 -41 5 0 12 -26 16 -57 28 -264 96 -443
241 -636 154 -205 339 -359 569 -472 208 -102 284 -126 572 -181 18 -3 37 -34
88 -138 l65 -133 -6 -284 c-4 -156 -7 -306 -8 -333 -1 -31 4 -51 12 -53 6 -3
12 0 12 6 0 6 48 113 106 238 126 270 186 409 213 497 18 58 18 69 6 127 -7
35 -10 67 -7 70 4 3 39 11 79 17 216 35 505 169 644 299 27 25 51 44 53 42 6
-7 -43 -393 -84 -656 -78 -502 -154 -828 -258 -1113 -45 -123 -47 -126 -121
-199 -126 -123 -374 -301 -701 -506 -437 -273 -1036 -575 -1570 -791 l-145
-59 -225 0 c-203 1 -233 3 -310 24 -128 34 -260 93 -352 156 -415 285 -670
491 -1083 872 -147 136 -507 510 -575 598 -175 226 -238 477 -340 1335 -17
140 -33 277 -36 304 l-7 48 84 -64 c200 -152 468 -257 738 -288 145 -17 405
-8 551 19 320 60 622 214 836 425 243 241 361 480 386 786 l12 135 50 24 c138
65 215 75 310 42z m-3575 -516 c36 -203 60 -365 72 -470 5 -55 17 -131 26
-168 13 -60 13 -70 0 -85 -30 -34 -47 -82 -47 -131 0 -62 7 -81 31 -81 14 0
28 19 53 73 35 77 47 91 85 100 26 6 128 -24 167 -50 27 -17 110 -122 124
-156 5 -12 19 -89 30 -172 11 -82 31 -213 44 -290 13 -77 22 -142 20 -144 -17
-18 -447 378 -494 454 -57 93 -110 346 -110 528 0 132 -21 285 -70 504 l-30
133 32 45 c18 25 35 42 39 38 4 -5 16 -62 28 -128z m6706 -167 c-3 -18 -9 -85
-15 -148 -19 -209 -59 -432 -115 -648 -39 -147 -42 -183 -19 -206 22 -23 54
-20 96 9 20 14 46 25 56 25 11 0 37 12 58 27 44 30 91 34 140 13 55 -24 80 -8
102 62 26 81 48 181 62 288 6 47 31 148 55 225 24 77 55 179 70 228 22 76 28
86 43 77 43 -24 44 -27 33 -49 -10 -17 -9 -20 4 -15 8 3 12 10 9 15 -6 10 4
11 27 1 14 -6 7 -30 -47 -167 -36 -88 -101 -257 -145 -375 -45 -118 -85 -219
-90 -225 -5 -5 -9 -16 -9 -26 0 -15 -125 -355 -187 -509 -52 -129 -93 -160
-212 -160 -81 0 -221 28 -221 44 0 6 9 57 20 114 28 148 105 698 135 964 l25
226 39 67 c22 37 49 92 61 121 12 30 24 54 26 54 1 0 1 -15 -1 -32z m-4780
-3364 c709 -649 1495 -1208 1889 -1343 31 -11 193 -103 359 -204 411 -251 409
-249 400 -257 -59 -53 -937 -728 -1026 -789 l-47 -32 -203 169 c-614 514
-1192 1092 -1511 1513 l-73 96 -7 84 c-11 124 -83 767 -106 937 -11 81 -20
152 -20 157 1 6 49 -40 108 -101 59 -61 166 -165 237 -230z m3533 -1046 c-18
-24 -61 -72 -96 -108 -42 -43 -32 -29 30 42 96 112 124 139 66 66z m-3836
-188 c242 -369 396 -521 1127 -1118 130 -106 269 -215 309 -243 41 -27 72 -49
70 -50 -1 0 -73 -4 -158 -9 -252 -15 -313 -43 -514 -239 -406 -397 -813 -997
-1076 -1586 -68 -152 -68 -151 -75 -144 -6 7 -88 494 -119 709 -61 420 -95
854 -103 1285 -3 182 -10 338 -15 348 -6 12 -2 29 16 60 23 40 78 187 172 461
43 123 156 428 224 604 18 46 35 80 39 75 4 -4 51 -73 103 -153z m3638 -13 c0
-2 -12 -14 -27 -28 l-28 -24 24 28 c23 25 31 32 31 24z m468 -232 c28 -71 100
-256 161 -410 189 -481 201 -518 201 -602 0 -327 -216 -1035 -533 -1749 -113
-254 -247 -519 -256 -508 -12 13 -128 346 -212 604 -142 443 -250 710 -435
1080 -149 296 -221 400 -309 445 -32 16 -72 31 -91 34 -34 6 -32 7 248 242
271 226 854 731 1062 919 55 50 103 87 107 83 3 -5 29 -66 57 -138z m-2055
-1377 c12 -29 48 -107 81 -173 l58 -120 6 -296 5 -295 -39 -33 c-41 -34 -181
-106 -224 -115 -20 -4 -28 1 -41 23 -32 54 -160 67 -193 19 -10 -13 -21 -18
-34 -14 -19 6 -20 22 -27 495 -7 468 -6 490 11 515 29 39 56 44 222 45 l154 1
21 -52z m307 25 c0 -29 -2 -29 -19 5 -10 18 -9 22 4 22 10 0 15 -9 15 -27z
m-800 -559 l0 -405 -62 48 c-34 26 -113 99 -176 160 -85 83 -112 116 -105 125
6 7 83 118 172 246 89 127 164 232 166 232 3 0 5 -183 5 -406z m780 -60 c28
-58 50 -112 50 -119 0 -8 -21 -32 -47 -54 l-48 -41 -7 48 c-8 58 -10 272 -3
272 4 0 28 -48 55 -106z m-852 -409 c41 -29 71 -57 72 -67 0 -10 -3 -18 -6
-18 -20 0 -345 261 -402 323 -20 21 -22 29 -12 47 11 20 18 15 144 -107 73
-70 164 -150 204 -178z m967 165 c9 -17 13 -35 10 -40 -7 -11 -160 -120 -169
-120 -3 0 -6 12 -6 27 0 20 18 43 73 94 39 38 73 68 74 69 1 0 10 -14 18 -30z
m-255 -200 c0 -22 -58 -55 -167 -96 -80 -30 -113 -31 -113 -4 0 14 7 20 24 20
40 0 148 38 196 69 54 36 60 37 60 11z m-376 -57 c3 -21 6 -64 6 -95 0 -55 -1
-58 -25 -58 -25 0 -25 0 -25 95 0 86 2 95 19 95 14 0 20 -10 25 -37z m-134
-39 c0 -17 -6 -24 -20 -24 -15 0 -20 7 -20 29 0 24 3 28 20 24 13 -3 20 -14
20 -29z m510 -84 c0 -80 -6 -93 -30 -65 -7 8 -37 29 -68 47 l-56 32 70 32 c38
18 72 33 77 33 4 1 7 -35 7 -79z m-207 -280 c108 -41 237 -194 237 -281 0 -31
-55 -141 -106 -210 -47 -65 -113 -123 -176 -155 -46 -24 -65 -28 -138 -28 -76
0 -92 3 -146 31 -115 60 -225 196 -264 330 -12 39 -11 46 14 97 44 89 163 186
281 229 69 24 217 18 298 -13z m1264 -102 c-3 -8 -6 -5 -6 6 -1 11 2 17 5 13
3 -3 4 -12 1 -19z"/>
<path d="M8409 12151 c-218 -48 -400 -112 -544 -194 -95 -54 -185 -132 -185
-161 0 -9 11 -28 25 -42 23 -23 30 -24 88 -19 69 8 182 30 357 70 163 38 231
33 420 -31 148 -50 364 -153 659 -313 175 -96 226 -109 273 -71 39 30 52 86
39 170 -10 59 -26 111 -108 339 -18 51 -68 111 -92 111 -9 0 -22 5 -27 10 -14
14 -262 86 -399 117 -154 34 -384 41 -506 14z"/>
<path d="M9508 11899 c-27 -15 -22 -61 20 -205 36 -123 82 -224 102 -224 20 0
34 49 34 120 -1 114 -58 285 -103 310 -24 12 -31 12 -53 -1z"/>
<path d="M10582 11681 c-30 -18 -42 -140 -21 -216 6 -21 27 -55 47 -75 35 -35
35 -35 45 -13 7 16 4 61 -11 155 -21 130 -35 165 -60 149z"/>
<path d="M10074 9985 c-13 -20 -16 -40 -11 -90 7 -68 23 -109 55 -138 19 -17
21 -17 37 -1 24 24 18 188 -8 228 -22 33 -52 33 -73 1z"/>
<path d="M10194 9956 c-44 -69 39 -288 87 -229 22 26 19 191 -4 226 -23 35
-61 36 -83 3z"/>
<path d="M10140 9106 c-14 -8 -39 -20 -57 -26 -30 -11 -133 -104 -133 -120 0
-4 -8 -10 -19 -13 -47 -12 -29 -115 36 -210 14 -20 23 -40 20 -44 -11 -10 -47
28 -47 49 0 10 -6 18 -14 18 -8 0 -16 6 -19 13 -2 6 -4 -3 -5 -20 0 -26 3 -33
19 -33 22 0 24 -11 7 -28 -9 -9 -8 -12 5 -12 9 0 17 -5 17 -12 0 -9 3 -9 12 0
9 9 16 8 30 -5 17 -15 18 -14 18 18 0 19 7 44 15 56 31 44 170 67 254 43 111
-32 123 -153 20 -194 -50 -20 -142 -20 -194 0 -22 9 -50 16 -63 17 -14 1 -21
6 -17 14 6 18 -28 30 -66 25 -26 -4 -41 -21 -21 -23 59 -6 117 -36 117 -60 0
-5 7 -14 15 -19 12 -8 12 -10 -2 -15 -27 -11 -218 13 -279 33 -30 11 -101 23
-157 27 -96 7 -103 6 -146 -18 -70 -39 -126 -89 -126 -114 0 -60 63 -66 165
-16 30 15 56 25 57 22 37 -54 81 -125 103 -164 96 -170 254 -358 358 -426 101
-65 162 -62 287 14 72 44 83 55 109 109 10 21 71 90 137 155 72 70 148 158
189 216 37 53 70 97 73 97 3 0 20 -11 38 -25 86 -66 139 16 75 117 -39 61 -79
82 -148 76 -48 -4 -53 -3 -47 14 16 52 -56 188 -109 204 -12 3 -31 17 -42 30
-14 18 -34 26 -69 31 -38 4 -47 3 -41 -7 5 -9 4 -11 -3 -6 -9 5 -8 12 1 28 9
16 9 22 0 25 -7 3 -13 11 -13 19 0 8 -4 14 -8 14 -5 0 -18 9 -31 21 -12 11
-29 18 -37 15 -11 -4 -14 -1 -9 13 9 31 -64 74 -136 79 -57 4 -59 3 -59 -19
-1 -24 -1 -24 -16 4 -8 15 -16 27 -17 27 -1 0 -13 -7 -27 -14z m210 -56 c0 -5
-2 -10 -4 -10 -3 0 -8 5 -11 10 -3 6 -1 10 4 10 6 0 11 -4 11 -10z m-230 -514
c0 -3 -4 -8 -10 -11 -5 -3 -10 -1 -10 4 0 6 5 11 10 11 6 0 10 -2 10 -4z"/>
<path d="M9988 8553 c7 -3 16 -2 19 1 4 3 -2 6 -13 5 -11 0 -14 -3 -6 -6z"/>
<path d="M11590 7784 c-22 -20 -51 -60 -65 -90 -17 -35 -41 -65 -68 -85 -68
-50 -212 -117 -351 -161 l-129 -42 -36 22 c-73 45 -268 140 -338 165 -234 84
-451 94 -648 29 -113 -37 -387 -205 -521 -318 l-64 -54 -67 27 c-38 14 -78 33
-90 40 -28 18 -78 20 -98 3 -23 -19 -19 -68 9 -94 14 -12 56 -37 93 -55 51
-25 85 -52 136 -107 122 -131 343 -284 594 -409 106 -53 254 -43 390 27 43 21
110 51 148 65 209 77 389 203 520 366 65 80 115 163 115 190 0 7 24 21 53 31
98 34 312 145 386 201 40 30 85 62 100 69 64 33 93 152 48 194 -34 32 -70 28
-117 -14z"/>
<path d="M8816 7488 c-38 -54 -1 -118 94 -165 72 -37 96 -40 128 -17 36 25 29
67 -20 127 -60 73 -66 76 -130 77 -48 0 -59 -4 -72 -22z"/>
<path d="M10170 3142 c-71 -39 -102 -170 -60 -257 25 -52 65 -78 121 -77 138
2 210 181 116 289 -54 62 -116 77 -177 45z"/>
<path d="M10038 1741 c-32 -11 -80 -33 -108 -51 -57 -37 -140 -126 -140 -151
0 -9 20 -44 45 -78 74 -100 202 -169 290 -156 110 17 221 83 301 180 l36 45
-27 47 c-54 94 -116 143 -212 168 -74 19 -114 18 -185 -4z m155 -52 c124 -64
127 -225 7 -287 -55 -28 -105 -25 -159 11 -129 85 -72 287 81 287 27 0 59 -5
71 -11z"/>
<path d="M10210 1635 c13 -14 26 -25 28 -25 3 0 -5 11 -18 25 -13 14 -26 25
-28 25 -3 0 5 -11 18 -25z"/>
<path d="M10029 1633 c-13 -16 -12 -17 4 -4 16 13 21 21 13 21 -2 0 -10 -8
-17 -17z"/>
<path d="M10220 1458 c-15 -21 -17 -28 -6 -19 16 13 41 51 33 51 -2 0 -14 -15
-27 -32z"/>
<path d="M10067 1429 c7 -7 15 -10 18 -7 3 3 -2 9 -12 12 -14 6 -15 5 -6 -5z"/>
<path d="M3261 532 c-15 -28 -13 -132 7 -347 l17 -180 62 -3 63 -3 -5 28 c-3
15 -16 98 -30 183 -33 197 -59 298 -83 323 -20 19 -20 19 -31 -1z"/>
<path d="M16833 308 c-29 -32 -65 -107 -102 -211 -17 -49 -31 -90 -31 -93 0
-2 24 -4 54 -4 47 0 54 3 60 23 74 265 80 351 19 285z"/>
<path d="M10180 148 c-45 -31 -69 -66 -77 -111 l-6 -37 156 0 156 0 -14 41
c-41 115 -134 162 -215 107z"/>
</g>
</svg>
